<svg width="233" height="234" viewBox="0 0 233 234" fill="none" xmlns="http://www.w3.org/2000/svg">
<path d="M187.858 164.849C185.447 161.034 167.772 133.384 152.666 118.758C140.063 106.605 121.2 106.253 119.061 106.253C118.867 106.254 118.671 106.262 118.48 106.277H113.906C111.886 106.277 93.7829 106.623 80.5425 118.592C64.2063 133.378 46.1307 163.199 44.866 165.301C35.2905 180.505 29.4218 190.394 29.4218 201.388C29.4218 221.199 43.8751 234 66.2429 234H166.764C189.126 234 203.575 221.186 203.575 201.355C203.575 190.264 197.692 180.39 188.091 165.199C188.016 165.081 187.939 164.963 187.858 164.849ZM166.764 218.659H66.2429C58.196 218.659 44.6969 216.416 44.6969 201.388C44.6969 194.966 48.8986 187.593 57.8182 173.433C57.8478 173.386 57.8773 173.338 57.9068 173.29C58.085 172.993 75.8611 143.482 90.7656 129.992C99.8542 121.776 113.777 121.62 113.912 121.619H119.086C119.231 121.619 119.375 121.614 119.519 121.606C122.005 121.7 134.529 122.534 142.078 129.812C156.623 143.897 174.994 173.121 175.179 173.415C175.261 173.547 175.347 173.674 175.436 173.799C184.923 188.831 188.301 195.295 188.301 201.353C188.3 215.657 176.588 218.659 166.764 218.659Z" fill="#4A5BFF"/>
<path d="M79.6321 87.6779C96.8715 87.6779 110.375 68.4192 110.375 43.8343C110.376 19.2545 96.8715 0 79.6321 0C62.3946 0 48.8915 19.2545 48.8915 43.8343C48.8915 68.4203 62.3946 87.6779 79.6321 87.6779ZM79.6321 15.3406C86.9478 15.3406 95.0996 27.0425 95.0996 43.8343C95.0996 60.6313 86.9468 72.3373 79.6321 72.3373C72.3173 72.3373 64.1655 60.6313 64.1655 43.8343C64.1666 27.0425 72.3173 15.3406 79.6321 15.3406Z" fill="#4A5BFF"/>
<path d="M39.3731 140.414C42.3782 140.414 45.2489 139.793 47.9403 138.553C61.3437 132.294 65.0759 112.65 56.4333 93.8285C49.7275 79.2528 37.3221 69.4604 25.5613 69.4604C22.5532 69.4604 19.6784 70.0832 17.0063 71.3187C3.58455 77.5562 -0.159878 97.2034 8.4848 116.058C15.1906 130.626 27.6031 140.413 39.371 140.414H39.3731ZM22.3546 109.631C17.1855 98.357 18.6529 87.456 23.4065 85.248C24.0572 84.9473 24.7609 84.801 25.5603 84.801C30.3567 84.801 37.9453 90.2193 42.5635 100.257C47.7326 111.515 46.2652 122.417 41.534 124.626C40.8802 124.927 40.1735 125.074 39.372 125.074C34.5695 125.073 26.9717 119.657 22.3546 109.631Z" fill="#4A5BFF"/>
<path d="M153.353 87.6779C170.586 87.6779 184.086 68.4192 184.086 43.8343C184.086 19.2545 170.586 0 153.353 0C136.103 0 122.592 19.2545 122.592 43.8343C122.592 68.4203 136.103 87.6779 153.353 87.6779ZM153.353 15.3406C160.664 15.3406 168.811 27.0425 168.811 43.8343C168.811 60.6313 160.664 72.3373 153.353 72.3373C146.029 72.3373 137.867 60.6313 137.867 43.8343C137.867 27.0425 146.029 15.3406 153.353 15.3406Z" fill="#4A5BFF"/>
<path d="M215.994 71.3207C213.329 70.0812 210.447 69.4522 207.429 69.4522C195.685 69.4522 183.284 79.2477 176.574 93.8203C167.893 112.634 171.622 132.284 185.095 138.57C187.752 139.794 190.624 140.415 193.629 140.415C205.4 140.415 217.809 130.626 224.509 116.052C233.161 97.2106 229.419 77.5613 215.994 71.3207ZM210.639 109.624C206.026 119.659 198.433 125.073 193.629 125.073C192.827 125.073 192.12 124.927 191.498 124.641C186.715 122.41 185.244 111.514 190.435 100.264C195.063 90.2142 202.643 84.7918 207.429 84.7918C208.224 84.7918 208.925 84.9381 209.574 85.2398C214.344 87.459 215.812 98.3591 210.639 109.624Z" fill="#4A5BFF"/>
<path d="M36 204.5L84 124L120.5 112.5L148 126L197.5 198.5L182 226.5L49.5 224.5L34.5 205.5L36 204.5Z" fill="#4A5BFF"/>
<path d="M64 65.5L56.5 39L64 15.5L80.5 7.5L89 12L99 26.5V39V63L92.5 74.5L80.5 77L64 65.5Z" fill="#4A5BFF"/>
<path d="M20.5 114L14.5 99L17 81L42 87L56.5 118L48.5 128H31.5L20.5 114Z" fill="#4A5BFF"/>
<path d="M169.278 65.2407L177.266 38.6307L169.278 15.0332L151.704 7L142.651 11.5187L132 26.0788V38.6307V62.7303L138.923 74.278L151.704 76.7884L169.278 65.2407Z" fill="#4A5BFF"/>
<path d="M215.609 113.942L222 98.8797L219.337 80.805L192.71 86.8299L177.266 117.959L185.787 128H203.893L215.609 113.942Z" fill="#4A5BFF"/>
</svg>
